<?xml version="1.0" encoding="UTF-8"?>
<!DOCTYPE svg PUBLIC "-//W3C//DTD SVG 1.1//EN" "http://www.w3.org/Graphics/SVG/1.1/DTD/svg11.dtd">
<svg xmlns="http://www.w3.org/2000/svg" version="1.1" width="500px" height="500px" style="shape-rendering:geometricPrecision; text-rendering:geometricPrecision; image-rendering:optimizeQuality; fill-rule:evenodd; clip-rule:evenodd" xmlns:xlink="http://www.w3.org/1999/xlink">
<g><path style="opacity:1" fill="#fefeff" d="M -0.5,-0.5 C 166.167,-0.5 332.833,-0.5 499.5,-0.5C 499.5,166.167 499.5,332.833 499.5,499.5C 332.833,499.5 166.167,499.5 -0.5,499.5C -0.5,332.833 -0.5,166.167 -0.5,-0.5 Z"/></g>
<g><path style="opacity:1" fill="#6416ff" d="M 158.5,76.5 C 168.526,75.449 176.692,78.7823 183,86.5C 249.914,183.326 316.58,280.326 383,377.5C 385.523,387.57 383.023,396.07 375.5,403C 366.506,409.499 357.173,415.499 347.5,421C 339.284,424.058 332.118,422.558 326,416.5C 257.667,317.5 189.333,218.5 121,119.5C 119.402,112.169 120.735,105.502 125,99.5C 135.832,91.1815 146.999,83.5149 158.5,76.5 Z"/></g>
<g><path style="opacity:1" fill="#6416ff" d="M 398.5,94.5 C 407.524,93.7644 415.024,96.7644 421,103.5C 427,111.5 433,119.5 439,127.5C 444.05,139.239 441.55,149.072 431.5,157C 413.048,170.29 395.048,184.123 377.5,198.5C 389.529,216.03 401.363,233.697 413,251.5C 415.379,262.364 412.213,271.198 403.5,278C 395.5,283.333 387.5,288.667 379.5,294C 372.833,296 366.167,296 359.5,294C 335.964,261.095 312.797,227.929 290,194.5C 286.837,184.651 289.337,176.485 297.5,170C 331.915,145.74 365.582,120.573 398.5,94.5 Z"/></g>
<g><path style="opacity:1" fill="#6416ff" d="M 122.5,187.5 C 131.953,187.04 139.786,190.373 146,197.5C 187,257.167 228,316.833 269,376.5C 272.404,387.54 269.571,396.707 260.5,404C 252.5,409.333 244.5,414.667 236.5,420C 231.363,422.247 226.03,422.914 220.5,422C 217.452,421.394 214.952,419.894 213,417.5C 170,355.167 127,292.833 84,230.5C 82.4016,223.169 83.7349,216.502 88,210.5C 98.997,201.93 110.497,194.263 122.5,187.5 Z"/></g>
<g><path style="opacity:1" fill="#6517ff" d="M 94.5,311.5 C 104.788,309.65 113.288,312.65 120,320.5C 128.753,333.674 137.753,346.674 147,359.5C 153.197,369.351 152.864,379.018 146,388.5C 135.701,397.063 124.534,404.23 112.5,410C 104.864,411.895 98.3637,410.061 93,404.5C 81.5803,387.326 69.9137,370.326 58,353.5C 56.5377,346.532 57.871,340.199 62,334.5C 72.4585,326.193 83.2918,318.526 94.5,311.5 Z"/></g>
</svg>
