<?xml version="1.0" standalone="no"?>
<!DOCTYPE svg PUBLIC "-//W3C//DTD SVG 20010904//EN"
 "http://www.w3.org/TR/2001/REC-SVG-20010904/DTD/svg10.dtd">
<svg version="1.0" xmlns="http://www.w3.org/2000/svg"
 width="500.000000pt" height="500.000000pt" viewBox="0 0 500.000000 500.000000"
 preserveAspectRatio="xMidYMid meet">

<g transform="translate(0.000000,500.000000) scale(0.100000,-0.100000)"
fill="#000000" stroke="none">
<path d="M550 2675 l0 -285 285 0 285 0 0 285 0 285 -285 0 -285 0 0 -285z
m186 217 c19 -11 264 -371 264 -385 0 -22 -37 -49 -57 -43 -19 7 -261 353
-270 385 -3 12 4 25 18 35 26 18 29 19 45 8z m332 -50 c14 -21 12 -24 -28 -61
l-43 -39 22 -30 c28 -39 27 -58 -4 -78 -24 -16 -27 -15 -45 1 -28 25 -80 109
-80 127 0 22 120 110 144 106 10 -2 25 -13 34 -26z m-298 -202 c85 -124 94
-154 56 -171 -34 -16 -38 -12 -132 126 -76 112 -77 115 -59 135 36 40 55 27
135 -90z m-91 -76 c24 -30 27 -54 9 -72 -21 -21 -56 -13 -77 17 -26 36 -27 57
-3 70 28 17 49 12 71 -15z"/>
<path d="M1270 2675 c0 -118 1 -125 20 -125 17 0 20 7 20 50 l0 50 41 0 c51 0
77 14 90 47 13 35 -4 77 -37 92 -14 6 -49 11 -79 11 l-55 0 0 -125z m126 58
c8 -31 -15 -53 -58 -53 -26 0 -28 3 -28 40 0 40 0 40 40 40 35 0 40 -3 46 -27z"/>
<path d="M1540 2675 c0 -118 1 -125 20 -125 17 0 20 7 20 50 0 44 2 50 21 50
15 0 26 -13 42 -50 18 -43 25 -50 49 -50 l28 0 -26 52 c-23 46 -24 52 -9 60
43 25 36 105 -11 127 -14 6 -49 11 -79 11 l-55 0 0 -125z m124 63 c17 -27 -5
-52 -48 -56 l-36 -3 0 41 0 41 36 -3 c22 -2 42 -10 48 -20z"/>
<path d="M1844 2766 c-31 -31 -34 -40 -34 -91 0 -51 3 -60 34 -91 30 -30 40
-34 85 -34 41 0 56 5 82 28 56 50 56 144 -1 195 -25 22 -40 27 -81 27 -45 0
-55 -4 -85 -34z m140 -25 c29 -32 32 -91 6 -123 -28 -36 -87 -39 -116 -7 -29
32 -26 105 5 130 30 25 83 25 105 0z"/>
<path d="M2247 2793 c-4 -3 -7 -51 -7 -105 l0 -98 -25 0 c-14 0 -28 7 -31 15
-4 8 -17 15 -30 15 -26 0 -24 -19 4 -52 21 -25 86 -24 112 2 17 17 20 33 20
125 0 95 -2 105 -18 105 -10 0 -22 -3 -25 -7z"/>
<path d="M2390 2675 l0 -125 86 0 c76 0 85 2 82 18 -2 13 -15 18 -61 20 l-57
3 0 34 0 35 55 0 c42 0 55 3 55 15 0 12 -13 15 -55 15 l-55 0 0 35 0 35 60 0
c53 0 60 2 60 20 0 18 -7 20 -85 20 l-85 0 0 -125z"/>
<path d="M2698 2780 c-60 -46 -64 -153 -9 -202 26 -23 41 -28 82 -28 43 0 55
5 80 29 16 16 29 34 29 40 0 19 -45 12 -63 -9 -11 -13 -29 -20 -51 -20 -44 0
-66 29 -66 87 0 51 26 83 68 83 16 0 37 -9 47 -20 25 -27 65 -27 58 0 -15 57
-123 82 -175 40z"/>
<path d="M2960 2780 c0 -16 7 -20 35 -20 l35 0 0 -105 0 -105 25 0 25 0 0 105
0 105 35 0 c28 0 35 4 35 20 0 19 -7 20 -95 20 -88 0 -95 -1 -95 -20z"/>
<path d="M3240 2675 c0 -104 2 -125 15 -125 11 0 15 12 15 50 0 48 1 50 29 50
94 0 142 70 86 125 -20 21 -34 25 -85 25 l-60 0 0 -125z m130 76 c5 -11 10
-24 10 -30 0 -22 -33 -41 -71 -41 l-39 0 0 45 0 45 45 0 c34 0 47 -5 55 -19z"/>
<path d="M3577 2792 c-7 -10 -87 -228 -87 -236 0 -3 6 -6 14 -6 8 0 19 14 25
30 9 28 13 30 65 30 51 0 55 -2 65 -30 5 -17 17 -30 27 -30 11 0 14 5 9 18 -4
9 -22 58 -40 107 -18 50 -36 98 -40 108 -7 17 -30 23 -38 9z m49 -126 c6 -25
4 -26 -34 -26 l-41 0 15 43 c26 75 25 74 40 41 7 -17 16 -43 20 -58z"/>
<path d="M3790 2675 l0 -125 75 0 c88 0 102 18 18 22 l-58 3 -3 113 c-2 90 -5
112 -17 112 -12 0 -15 -22 -15 -125z"/>
<path d="M4055 2780 c-20 -23 -23 -63 -5 -85 7 -8 30 -20 51 -26 49 -15 73
-41 64 -68 -12 -39 -88 -39 -100 0 -7 22 -35 26 -35 4 0 -30 38 -55 85 -55 69
0 104 46 75 99 -5 10 -34 29 -65 41 -44 18 -55 27 -55 45 0 12 7 28 15 35 20
17 62 5 70 -20 7 -23 35 -27 35 -5 0 49 -99 75 -135 35z"/>
</g>
</svg>
