<?xml version="1.0" standalone="no"?>
<!DOCTYPE svg PUBLIC "-//W3C//DTD SVG 20010904//EN"
 "http://www.w3.org/TR/2001/REC-SVG-20010904/DTD/svg10.dtd">
<svg version="1.0" xmlns="http://www.w3.org/2000/svg"
 width="500.000000pt" height="500.000000pt" viewBox="0 0 500.000000 500.000000"
 preserveAspectRatio="xMidYMid meet">

<g transform="translate(0.000000,500.000000) scale(0.100000,-0.100000)"
fill="#000000" stroke="none">
<path d="M0 2500 l0 -2500 2500 0 2500 0 0 2500 0 2500 -2500 0 -2500 0 0
-2500z m868 42 c127 -184 134 -196 126 -216 -10 -25 -44 -30 -64 -10 -36 38
-230 328 -230 344 0 21 19 40 41 40 12 0 57 -56 127 -158z m189 112 c17 -27
17 -27 -22 -60 l-39 -32 19 -36 c22 -41 14 -69 -23 -74 -15 -2 -30 10 -56 50
-20 29 -36 61 -36 70 0 18 106 108 127 108 7 0 20 -12 30 -26z m288 -46 c26
-12 41 -47 36 -83 -4 -33 -39 -55 -87 -55 l-44 0 0 -50 c0 -47 -2 -50 -25 -50
l-25 0 0 125 0 125 60 0 c32 0 71 -5 85 -12z m279 -9 c33 -26 36 -79 6 -109
-19 -19 -19 -20 0 -66 25 -56 25 -54 -3 -54 -18 0 -29 11 -47 50 -16 33 -30
50 -42 50 -15 0 -18 -8 -18 -50 0 -47 -2 -50 -25 -50 l-25 0 0 125 0 125 64 0
c49 0 69 -5 90 -21z m332 -13 c30 -30 34 -40 34 -89 0 -66 -30 -111 -84 -126
-95 -26 -177 46 -162 143 12 71 54 106 129 106 42 0 54 -5 83 -34z m274 -70
c0 -125 -12 -148 -75 -148 -62 0 -114 72 -58 80 14 2 23 -4 28 -18 5 -15 13
-20 28 -18 21 3 22 9 25 106 3 101 3 102 27 102 25 0 25 0 25 -104z m268 87
c-2 -14 -15 -19 -61 -21 -56 -3 -57 -4 -57 -32 0 -29 1 -30 50 -30 43 0 50 -3
50 -20 0 -17 -7 -20 -50 -20 l-50 0 0 -35 0 -34 57 -3 c46 -2 59 -7 61 -20 3
-16 -6 -18 -82 -18 l-86 0 0 125 0 125 86 0 c76 0 85 -2 82 -17z m273 7 c10
-6 26 -24 34 -40 15 -30 15 -30 -12 -30 -17 0 -33 8 -41 20 -16 25 -62 26 -93
2 -29 -24 -32 -101 -4 -132 24 -27 80 -27 97 0 8 12 24 20 40 20 24 0 26 -3
19 -22 -21 -56 -117 -80 -174 -43 -68 44 -63 189 7 224 28 13 102 14 127 1z
m319 -10 c0 -16 -7 -20 -35 -20 l-35 0 0 -105 0 -105 -25 0 -25 0 0 105 0 105
-35 0 c-28 0 -35 4 -35 20 0 19 7 20 95 20 88 0 95 -1 95 -20z m221 9 c29 -15
42 -57 29 -90 -13 -31 -48 -49 -95 -49 l-35 0 0 -50 c0 -38 -4 -50 -15 -50
-13 0 -15 21 -15 125 l0 125 56 0 c30 0 64 -5 75 -11z m247 -16 c5 -16 26 -72
46 -125 32 -90 34 -98 16 -98 -12 0 -21 10 -25 30 -6 29 -9 30 -62 30 -52 0
-55 -2 -66 -30 -7 -17 -19 -30 -29 -30 -15 0 -15 7 9 68 14 37 34 93 45 125
22 65 49 77 66 30z m202 -83 l0 -109 57 -3 c34 -2 58 -8 61 -15 3 -10 -16 -13
-72 -13 l-76 0 0 125 c0 104 2 125 15 125 12 0 15 -19 15 -110z m350 90 c11
-11 20 -27 20 -35 0 -20 -29 -19 -36 0 -14 35 -76 41 -88 9 -10 -26 5 -42 60
-64 77 -32 93 -67 51 -116 -33 -38 -102 -37 -135 2 -23 27 -25 45 -4 52 7 2
16 -8 22 -22 18 -50 100 -42 100 10 0 20 -9 29 -47 45 -61 26 -83 46 -83 76 0
36 34 63 80 63 27 0 47 -7 60 -20z m-3383 -52 c39 -44 133 -190 133 -207 0
-22 -19 -41 -41 -41 -10 0 -43 37 -80 92 -93 134 -94 136 -73 159 22 25 36 24
61 -3z m-23 -153 c22 -34 20 -62 -6 -76 -19 -10 -25 -8 -50 20 -32 36 -35 56
-10 70 28 17 49 13 66 -14z"/>
<path d="M1250 2540 c0 -31 4 -40 18 -40 35 0 62 13 67 32 9 28 -12 48 -51 48
-33 0 -34 -1 -34 -40z"/>
<path d="M1520 2540 c0 -37 2 -40 28 -40 31 0 47 9 54 30 10 28 -11 50 -47 50
-34 0 -35 -1 -35 -40z"/>
<path d="M1819 2561 c-19 -15 -24 -29 -24 -64 0 -57 25 -87 72 -87 48 0 73 29
73 85 0 76 -65 112 -121 66z"/>
<path d="M3210 2546 l0 -46 39 0 c45 0 64 18 59 57 -3 26 -7 28 -50 31 l-48 3
0 -45z"/>
<path d="M3518 2539 c-34 -79 -34 -79 12 -79 46 0 45 -5 15 80 l-12 35 -15
-36z"/>
</g>
</svg>
