<?xml version="1.0" standalone="no"?>
<!DOCTYPE svg PUBLIC "-//W3C//DTD SVG 20010904//EN"
 "http://www.w3.org/TR/2001/REC-SVG-20010904/DTD/svg10.dtd">
<svg version="1.0" xmlns="http://www.w3.org/2000/svg"
 width="500.000000pt" height="500.000000pt" viewBox="0 0 500.000000 500.000000"
 preserveAspectRatio="xMidYMid meet">

<g transform="translate(0.000000,500.000000) scale(0.100000,-0.100000)"
fill="#6415ff" stroke="none">
<path d="M0 2500 l0 -2500 2500 0 2500 0 0 2500 0 2500 -2500 0 -2500 0 0
-2500z m1713 1719 c58 -16 98 -58 215 -228 107 -154 389 -561 1361 -1969 271
-393 507 -736 524 -763 26 -42 31 -60 31 -112 -1 -67 -24 -125 -66 -163 -59
-55 -278 -194 -321 -205 -64 -16 -131 -4 -167 29 -16 15 -195 268 -398 562
-202 294 -650 942 -994 1440 -343 498 -642 930 -662 960 -34 50 -38 60 -33
102 8 63 38 120 84 155 65 50 262 183 286 193 30 12 94 12 140 -1z m2382 -180
c63 -17 97 -50 209 -199 112 -148 127 -184 111 -267 -16 -90 -6 -81 -624 -549
-12 -9 13 -51 152 -253 91 -132 174 -255 183 -273 23 -44 22 -132 -1 -181 -26
-55 -56 -82 -201 -180 -146 -98 -196 -116 -275 -97 -26 6 -56 21 -66 33 -16
17 -395 563 -656 946 -42 60 -48 114 -22 179 22 50 45 74 150 147 50 34 225
165 390 291 165 125 355 269 423 321 131 100 145 104 227 82z m-2759 -930 c29
-8 61 -26 88 -53 24 -22 284 -390 578 -816 748 -1083 697 -1007 704 -1062 9
-63 -10 -128 -52 -177 -50 -58 -291 -217 -343 -226 -59 -10 -127 2 -156 28
-28 26 -1303 1871 -1317 1907 -11 30 -1 94 23 142 20 39 60 71 219 178 134 90
169 101 256 79z m-216 -1249 c19 -10 47 -31 61 -47 48 -52 321 -454 330 -486
16 -58 10 -112 -19 -168 -24 -46 -45 -66 -142 -136 -163 -117 -204 -136 -284
-131 -36 2 -74 11 -89 20 -14 10 -109 139 -211 287 -179 259 -186 271 -186
318 1 65 29 123 81 165 97 77 269 188 306 197 48 11 108 3 153 -19z"/>
</g>
</svg>
