<?xml version="1.0" standalone="no"?>
<!DOCTYPE svg PUBLIC "-//W3C//DTD SVG 20010904//EN"
 "http://www.w3.org/TR/2001/REC-SVG-20010904/DTD/svg10.dtd">
<svg version="1.0" xmlns="http://www.w3.org/2000/svg"
 width="500.000000pt" height="500.000000pt" viewBox="0 0 500.000000 500.000000"
 preserveAspectRatio="xMidYMid meet">

<g transform="translate(0.000000,500.000000) scale(0.100000,-0.100000)"
fill="#000000" stroke="none">
<path d="M0 2500 l0 -2500 2500 0 2500 0 0 2500 0 2500 -2500 0 -2500 0 0
-2500z m2096 1455 c27 -8 63 -27 79 -42 17 -15 105 -136 196 -268 91 -132 318
-460 504 -730 186 -269 366 -530 400 -580 84 -122 95 -145 95 -207 -1 -157
-154 -260 -300 -202 -37 15 -63 50 -307 403 -147 212 -419 606 -605 875 l-338
489 0 54 c0 114 94 210 216 222 6 1 33 -6 60 -14z m1491 -116 c38 -14 90 -66
115 -113 16 -31 19 -53 16 -107 -3 -58 -8 -74 -34 -106 -25 -31 -261 -221
-312 -252 -10 -6 10 -41 77 -138 94 -136 117 -190 104 -255 -15 -81 -65 -139
-148 -174 -47 -19 -126 -12 -171 15 -17 10 -81 92 -149 192 -250 362 -235 337
-235 392 0 100 16 118 288 325 135 103 262 197 281 209 40 25 119 31 168 12z
m-1722 -560 c22 -6 54 -22 71 -35 27 -19 559 -775 692 -982 69 -107 66 -196
-9 -277 -53 -57 -111 -80 -186 -72 -32 3 -68 14 -82 25 -14 10 -164 218 -333
463 -445 642 -428 616 -428 659 0 102 75 197 174 220 45 11 56 11 101 -1z
m-97 -781 c24 -17 65 -64 108 -127 61 -91 68 -107 72 -159 11 -157 -157 -278
-300 -214 -38 16 -57 37 -122 132 -43 62 -83 128 -88 147 -22 80 35 187 124
232 60 31 150 26 206 -11z m62 -947 c94 -66 46 -214 -68 -213 -23 0 -50 6 -61
12 -29 15 -51 62 -51 107 0 100 98 151 180 94z m771 6 c10 -6 22 -21 28 -34
15 -33 -13 -42 -43 -14 -49 46 -116 15 -116 -54 0 -46 25 -75 64 -75 19 0 39
7 46 15 7 8 23 15 36 15 21 0 22 -3 13 -23 -15 -32 -44 -48 -90 -49 -50 -1
-87 24 -106 70 -45 108 71 210 168 149z m1232 -5 c19 -17 23 -42 6 -42 -6 0
-19 10 -28 22 -24 29 -71 19 -71 -16 0 -19 9 -27 43 -41 55 -22 77 -43 77 -73
0 -40 -27 -62 -77 -62 -45 0 -83 25 -83 55 0 22 28 18 35 -5 3 -11 18 -23 32
-26 59 -15 83 50 28 74 -63 27 -80 38 -83 56 -14 70 64 108 121 58z m-2542 0
c15 -13 22 -30 22 -52 0 -43 -32 -70 -84 -70 l-39 0 0 -45 c0 -38 -3 -45 -20
-45 -19 0 -20 7 -20 115 l0 115 59 0 c42 0 65 -5 82 -18z m247 2 c30 -21 31
-87 1 -107 l-20 -15 20 -41 c26 -50 26 -51 -3 -51 -20 0 -28 9 -42 45 -11 31
-22 45 -35 45 -16 0 -19 -8 -19 -45 0 -38 -3 -45 -20 -45 -19 0 -20 7 -20 115
l0 115 58 0 c36 0 66 -6 80 -16z m560 -84 c-4 -115 -13 -132 -74 -132 -39 0
-74 27 -74 58 0 19 39 18 46 -1 4 -8 17 -15 30 -15 24 0 24 1 24 95 l0 95 26
0 26 0 -4 -100z m242 85 c0 -11 -12 -15 -50 -15 l-50 0 0 -35 c0 -35 0 -35 45
-35 33 0 45 -4 45 -15 0 -11 -12 -15 -45 -15 -43 0 -45 -1 -45 -30 0 -29 1
-30 50 -30 43 0 50 -3 50 -20 0 -18 -7 -20 -75 -20 l-75 0 0 115 0 115 75 0
c60 0 75 -3 75 -15z m550 1 c0 -9 -12 -16 -32 -18 l-33 -3 -3 -97 c-2 -90 -4
-98 -22 -98 -19 0 -20 7 -20 100 l0 100 -35 0 c-24 0 -35 5 -35 15 0 12 17 15
90 15 72 0 90 -3 90 -14z m220 -6 c46 -46 15 -105 -60 -115 l-50 -7 0 -44 c0
-32 -4 -44 -15 -44 -12 0 -15 19 -15 115 l0 115 60 0 c47 0 64 -4 80 -20z
m213 3 c3 -10 21 -62 41 -115 29 -79 33 -98 20 -98 -8 0 -20 14 -25 30 -10 28
-15 30 -59 30 -44 0 -49 -2 -59 -30 -5 -17 -17 -30 -27 -30 -11 0 -14 5 -9 18
4 9 23 61 42 115 27 73 40 97 53 97 10 0 20 -8 23 -17z m187 -88 l0 -105 55 0
c30 0 55 -4 55 -10 0 -6 -30 -10 -70 -10 l-70 0 0 115 c0 96 3 115 15 115 12
0 15 -18 15 -105z"/>
<path d="M1709 1513 c-22 -25 -18 -102 5 -119 28 -20 80 -18 99 4 23 26 22 94
-1 115 -24 22 -85 22 -103 0z"/>
<path d="M1190 1496 c0 -39 9 -43 55 -26 20 7 26 16 23 33 -2 18 -10 23 -40
25 -37 3 -38 3 -38 -32z"/>
<path d="M1440 1496 c0 -31 3 -36 23 -36 32 0 60 23 56 46 -3 14 -14 20 -42
22 -36 3 -37 3 -37 -32z"/>
<path d="M3007 1543 c-4 -3 -7 -24 -7 -45 0 -38 0 -38 39 -38 45 0 66 19 57
54 -7 29 -69 49 -89 29z"/>
<path d="M3281 1483 c-7 -21 -15 -44 -17 -50 -4 -9 6 -13 34 -13 l40 0 -16 50
c-9 28 -19 50 -22 50 -4 0 -12 -17 -19 -37z"/>
</g>
</svg>
